<svg aria-hidden="true" style="position: absolute; width: 0; height: 0; overflow: hidden;" version="1.1" xmlns="http://www.w3.org/2000/svg" xmlns:xlink="http://www.w3.org/1999/xlink">
<defs>
<symbol id="icon-check" viewBox="0 0 28 28">
<title>check</title>
<path d="M26.109 8.844c0 0.391-0.156 0.781-0.438 1.062l-13.438 13.438c-0.281 0.281-0.672 0.438-1.062 0.438s-0.781-0.156-1.062-0.438l-7.781-7.781c-0.281-0.281-0.438-0.672-0.438-1.062s0.156-0.781 0.438-1.062l2.125-2.125c0.281-0.281 0.672-0.438 1.062-0.438s0.781 0.156 1.062 0.438l4.594 4.609 10.25-10.266c0.281-0.281 0.672-0.438 1.062-0.438s0.781 0.156 1.062 0.438l2.125 2.125c0.281 0.281 0.438 0.672 0.438 1.062z"></path>
</symbol>
<symbol id="icon-close" viewBox="0 0 22 28">
<title>close</title>
<path d="M20.281 20.656c0 0.391-0.156 0.781-0.438 1.062l-2.125 2.125c-0.281 0.281-0.672 0.438-1.062 0.438s-0.781-0.156-1.062-0.438l-4.594-4.594-4.594 4.594c-0.281 0.281-0.672 0.438-1.062 0.438s-0.781-0.156-1.062-0.438l-2.125-2.125c-0.281-0.281-0.438-0.672-0.438-1.062s0.156-0.781 0.438-1.062l4.594-4.594-4.594-4.594c-0.281-0.281-0.438-0.672-0.438-1.062s0.156-0.781 0.438-1.062l2.125-2.125c0.281-0.281 0.672-0.438 1.062-0.438s0.781 0.156 1.062 0.438l4.594 4.594 4.594-4.594c0.281-0.281 0.672-0.438 1.062-0.438s0.781 0.156 1.062 0.438l2.125 2.125c0.281 0.281 0.438 0.672 0.438 1.062s-0.156 0.781-0.438 1.062l-4.594 4.594 4.594 4.594c0.281 0.281 0.438 0.672 0.438 1.062z"></path>
</symbol>
<symbol id="icon-hourglass-o" viewBox="0 0 24 28">
<title>hourglass-o</title>
<path d="M22 2c0 5.781-2.766 9.969-5.828 12 3.063 2.031 5.828 6.219 5.828 12h1.5c0.281 0 0.5 0.219 0.5 0.5v1c0 0.281-0.219 0.5-0.5 0.5h-23c-0.281 0-0.5-0.219-0.5-0.5v-1c0-0.281 0.219-0.5 0.5-0.5h1.5c0-5.781 2.766-9.969 5.828-12-3.063-2.031-5.828-6.219-5.828-12h-1.5c-0.281 0-0.5-0.219-0.5-0.5v-1c0-0.281 0.219-0.5 0.5-0.5h23c0.281 0 0.5 0.219 0.5 0.5v1c0 0.281-0.219 0.5-0.5 0.5h-1.5zM13.656 13.062c3.156-1.188 6.344-5.359 6.344-11.062h-16c0 5.703 3.187 9.875 6.344 11.062 0.391 0.141 0.656 0.516 0.656 0.938s-0.266 0.797-0.656 0.938c-3.156 1.188-6.344 5.359-6.344 11.062h16c0-5.703-3.187-9.875-6.344-11.062-0.391-0.141-0.656-0.516-0.656-0.938s0.266-0.797 0.656-0.938z"></path>
</symbol>
<symbol id="icon-hourglass-1" viewBox="0 0 24 28">
<title>hourglass-1</title>
<path d="M22 2c0 5.781-2.766 9.969-5.828 12 3.063 2.031 5.828 6.219 5.828 12h1.5c0.281 0 0.5 0.219 0.5 0.5v1c0 0.281-0.219 0.5-0.5 0.5h-23c-0.281 0-0.5-0.219-0.5-0.5v-1c0-0.281 0.219-0.5 0.5-0.5h1.5c0-5.781 2.766-9.969 5.828-12-3.063-2.031-5.828-6.219-5.828-12h-1.5c-0.281 0-0.5-0.219-0.5-0.5v-1c0-0.281 0.219-0.5 0.5-0.5h23c0.281 0 0.5 0.219 0.5 0.5v1c0 0.281-0.219 0.5-0.5 0.5h-1.5zM20 2h-16c0 0.688 0.047 1.359 0.141 2h15.719c0.094-0.641 0.141-1.313 0.141-2zM20 26c0-5.609-3.094-9.75-6.203-11h-3.594c-3.109 1.25-6.203 5.391-6.203 11h16z"></path>
</symbol>
<symbol id="icon-hourglass-2" viewBox="0 0 24 28">
<title>hourglass-2</title>
<path d="M22 2c0 5.781-2.766 9.969-5.828 12 3.063 2.031 5.828 6.219 5.828 12h1.5c0.281 0 0.5 0.219 0.5 0.5v1c0 0.281-0.219 0.5-0.5 0.5h-23c-0.281 0-0.5-0.219-0.5-0.5v-1c0-0.281 0.219-0.5 0.5-0.5h1.5c0-5.781 2.766-9.969 5.828-12-3.063-2.031-5.828-6.219-5.828-12h-1.5c-0.281 0-0.5-0.219-0.5-0.5v-1c0-0.281 0.219-0.5 0.5-0.5h23c0.281 0 0.5 0.219 0.5 0.5v1c0 0.281-0.219 0.5-0.5 0.5h-1.5zM20 2h-16c0 2.281 0.516 4.297 1.328 6h13.344c0.812-1.703 1.328-3.719 1.328-6zM19.109 21c-1.156-3.016-3.234-5.156-5.313-6h-3.594c-2.078 0.844-4.156 2.984-5.313 6h14.219z"></path>
</symbol>
<symbol id="icon-hourglass-3" viewBox="0 0 24 28">
<title>hourglass-3</title>
<path d="M22 2c0 5.781-2.766 9.969-5.828 12 3.063 2.031 5.828 6.219 5.828 12h1.5c0.281 0 0.5 0.219 0.5 0.5v1c0 0.281-0.219 0.5-0.5 0.5h-23c-0.281 0-0.5-0.219-0.5-0.5v-1c0-0.281 0.219-0.5 0.5-0.5h1.5c0-5.781 2.766-9.969 5.828-12-3.063-2.031-5.828-6.219-5.828-12h-1.5c-0.281 0-0.5-0.219-0.5-0.5v-1c0-0.281 0.219-0.5 0.5-0.5h23c0.281 0 0.5 0.219 0.5 0.5v1c0 0.281-0.219 0.5-0.5 0.5h-1.5zM13.656 13.062c3.156-1.188 6.344-5.359 6.344-11.062h-16c0 5.703 3.187 9.875 6.344 11.062 0.391 0.141 0.656 0.516 0.656 0.938s-0.266 0.797-0.656 0.938c-1.344 0.5-2.703 1.563-3.813 3.063h10.938c-1.109-1.5-2.469-2.562-3.813-3.063-0.391-0.141-0.656-0.516-0.656-0.938s0.266-0.797 0.656-0.938z"></path>
</symbol>
<symbol id="icon-arrow-down" viewBox="0 0 32 32">
<title>arrow-down</title>
<path d="M16 31l15-15h-9v-16h-12v16h-9z"></path>
</symbol>
</defs>
</svg>
